<?xml version="1.0" standalone="no"?>
<!DOCTYPE svg PUBLIC "-//W3C//DTD SVG 20010904//EN"
 "http://www.w3.org/TR/2001/REC-SVG-20010904/DTD/svg10.dtd">
<svg version="1.0" xmlns="http://www.w3.org/2000/svg"
 width="512.000000pt" height="512.000000pt" viewBox="0 0 512.000000 512.000000"
 preserveAspectRatio="xMidYMid meet">

<g transform="translate(0.000000,512.000000) scale(0.100000,-0.100000)"
fill="#000000" stroke="none">
<path d="M1069 4741 c-18 -14 -23 -31 -27 -78 l-4 -61 -50 -4 c-62 -6 -96 -31
-127 -91 l-23 -47 -188 0 c-170 0 -190 -2 -211 -19 l-24 -19 -3 -1100 c-2
-1098 -2 -1099 18 -1125 l21 -27 222 -2 222 -3 3 -132 3 -133 -371 0 -372 0
-29 -29 -29 -30 2 -721 3 -722 24 -19 c23 -19 75 -19 2426 -19 1322 0 2411 3
2420 6 45 18 45 21 45 769 l0 707 -29 29 -29 29 -371 0 -371 0 0 670 c0 637
-1 671 -18 688 -17 17 -48 19 -428 24 -225 3 -653 4 -951 1 l-543 -5 0 550 c0
566 -2 602 -40 622 -10 6 -102 10 -204 10 l-185 0 -19 43 c-25 56 -71 89 -133
95 l-49 5 0 37 c0 49 -18 98 -40 110 -11 6 -125 10 -268 10 -228 0 -252 -2
-273 -19z m421 -191 l0 -60 -144 0 -143 0 -7 50 c-4 28 -4 55 -1 60 4 6 68 10
151 10 l144 0 0 -60z m-446 -139 c11 -70 17 -71 303 -71 237 0 254 1 272 19
11 11 23 36 27 55 4 26 11 36 25 36 17 0 19 -9 19 -100 l0 -100 -345 0 -345 0
0 100 c0 91 2 100 19 100 14 0 20 -10 25 -39z m-203 -187 c4 -80 6 -87 32
-110 l29 -25 448 3 c533 4 490 -8 490 130 l0 88 140 0 140 0 0 -995 0 -995
-775 0 -775 0 0 995 0 995 134 0 134 0 3 -86z m1639 -1709 l0 -615 -715 0
-715 0 0 135 0 135 593 0 c591 0 594 0 613 21 18 20 19 45 22 480 l3 459 99 0
100 0 0 -615z m590 435 c0 -179 0 -181 25 -205 l24 -25 234 0 c216 0 237 2
258 19 23 19 24 24 27 205 l3 186 215 0 214 0 0 -615 0 -615 -715 0 -715 0 0
615 0 615 215 0 215 0 0 -180z m410 50 l0 -130 -130 0 -130 0 0 130 0 130 130
0 130 0 0 -130z m-2790 -1434 c0 -252 -26 -230 273 -234 l235 -3 28 25 29 24
3 181 3 181 215 0 214 0 0 -615 0 -615 -715 0 -715 0 0 620 0 620 215 0 215 0
0 -184z m4170 -436 l0 -620 -715 0 -715 0 0 615 0 615 214 0 215 0 3 -181 3
-181 29 -24 28 -25 235 3 c299 4 273 -18 273 234 l0 184 215 0 215 0 0 -620z
m-3760 480 l0 -131 -127 3 -128 3 -3 128 -3 127 131 0 130 0 0 -130z m1180
-54 l0 -185 26 -20 c25 -20 39 -21 256 -21 l229 0 24 25 c25 24 25 26 25 205
l0 180 220 0 220 0 -2 -612 -3 -613 -715 0 -715 0 -3 613 -2 612 220 0 220 0
0 -184z m410 54 l0 -130 -130 0 -130 0 0 130 0 130 130 0 130 0 0 -130z m1588
3 l-3 -128 -127 -3 -128 -3 0 131 0 130 130 0 131 0 -3 -127z"/>
<path d="M919 3921 c-41 -36 -48 -39 -90 -34 -41 5 -48 2 -67 -22 -34 -43 -28
-72 27 -126 73 -74 93 -70 198 34 91 91 99 113 62 161 -31 40 -75 36 -130 -13z"/>
<path d="M1180 3850 c-12 -12 -20 -33 -20 -55 0 -22 8 -43 20 -55 19 -19 33
-20 369 -20 326 0 350 1 372 19 17 13 23 29 23 56 0 27 -6 43 -23 56 -22 18
-46 19 -372 19 -336 0 -350 -1 -369 -20z"/>
<path d="M920 3504 c-41 -39 -52 -44 -69 -35 -32 17 -60 13 -86 -14 -38 -37
-32 -69 24 -127 73 -77 92 -74 197 34 93 95 103 120 59 163 -36 37 -68 32
-125 -21z"/>
<path d="M1186 3439 c-20 -16 -26 -29 -26 -58 0 -72 -8 -71 393 -71 l356 0 20
26 c28 36 26 60 -8 95 l-29 29 -340 0 c-328 0 -340 -1 -366 -21z"/>
<path d="M970 3133 c-8 -3 -33 -23 -56 -45 -36 -35 -43 -38 -67 -29 -53 20
-116 -31 -103 -83 13 -52 88 -116 136 -116 26 0 178 144 186 177 10 37 -4 72
-36 88 -31 16 -36 17 -60 8z"/>
<path d="M1182 3024 c-33 -23 -31 -86 4 -113 26 -20 38 -21 360 -21 352 0 373
2 393 47 16 34 14 47 -10 77 l-20 26 -353 0 c-302 0 -355 -2 -374 -16z"/>
<path d="M919 2681 c-41 -36 -48 -39 -90 -34 -41 5 -48 2 -67 -22 -34 -43 -28
-72 27 -126 73 -74 93 -70 198 34 91 91 99 113 62 161 -31 40 -75 36 -130 -13z"/>
<path d="M1182 2610 c-29 -27 -29 -83 -2 -110 19 -19 33 -20 369 -20 326 0
350 1 372 19 17 13 23 29 23 56 0 27 -6 43 -23 56 -22 18 -46 19 -370 19 -336
0 -348 -1 -369 -20z"/>
</g>
</svg>
