<?xml version="1.0" encoding="utf-8"?>
<!-- Generator: Adobe Illustrator 25.1.0, SVG Export Plug-In . SVG Version: 6.00 Build 0)  -->
<svg version="1.1" id="Layer_1" xmlns="http://www.w3.org/2000/svg" xmlns:xlink="http://www.w3.org/1999/xlink" x="0px" y="0px"
	 viewBox="0 0 800 800" style="enable-background:new 0 0 800 800;" xml:space="preserve">
<style type="text/css">
	.st0{fill:#F07B52;}
	.st1{fill:#E5563C;}
	.st2{fill:#74757B;}
	.st3{fill:#606268;}
	.st4{fill:#C3C4C6;}
	.st5{fill:#AFB0B4;}
	.st6{fill:#FDDD85;}
	.st7{fill:#FDD042;}
	.st8{fill:#F2C127;}
</style>
<path class="st0" d="M365.4,321.9l-38-25.7c-0.5-0.3-1.1-0.3-1.5,0l-38,25.7c-0.4,0.3-0.6,0.7-0.6,1.1v52.7c0,0.7,0.6,1.4,1.4,1.4
	h76c0.7,0,1.4-0.6,1.4-1.4V323C366,322.6,365.8,322.2,365.4,321.9z"/>
<path class="st1" d="M291.4,375.8V323c0-0.4,0.2-0.9,0.6-1.1l36.7-24.8l-1.3-0.9c-0.5-0.3-1.1-0.3-1.5,0l-38,25.7
	c-0.4,0.3-0.6,0.7-0.6,1.1v52.7c0,0.7,0.6,1.4,1.4,1.4h4.1C292,377.1,291.4,376.5,291.4,375.8z"/>
<path class="st2" d="M351.1,328.4h-48.8c-0.7,0-1.4,0.6-1.4,1.4v46c0,0.7,0.6,1.4,1.4,1.4h48.8c0.7,0,1.4-0.6,1.4-1.4v-46
	C352.4,329.1,351.8,328.4,351.1,328.4z"/>
<path class="st3" d="M302.3,328.4c-0.7,0-1.4,0.6-1.4,1.4v46c0,0.7,0.6,1.4,1.4,1.4h2.7v-48.7H302.3z"/>
<path class="st4" d="M353.8,323h-54.3c-0.7,0-1.4,0.6-1.4,1.4v5.4c0,0.7,0.6,1.4,1.4,1.4h54.3c0.7,0,1.4-0.6,1.4-1.4v-5.4
	C355.1,323.6,354.5,323,353.8,323z"/>
<path class="st5" d="M353.8,328.4h-54.3c-0.7,0-1.4-0.6-1.4-1.4v2.7c0,0.7,0.6,1.4,1.4,1.4h54.3c0.7,0,1.4-0.6,1.4-1.4v-2.7
	C355.1,327.8,354.5,328.4,353.8,328.4z"/>
<g>
	<path class="st1" d="M332.1,308.2h-10.9c-0.7,0-1.4-0.6-1.4-1.4c0-0.7,0.6-1.4,1.4-1.4h10.9c0.7,0,1.4,0.6,1.4,1.4
		C333.4,307.6,332.8,308.2,332.1,308.2z"/>
	<path class="st1" d="M332.1,313.6h-10.9c-0.7,0-1.4-0.6-1.4-1.4s0.6-1.4,1.4-1.4h10.9c0.7,0,1.4,0.6,1.4,1.4
		S332.8,313.6,332.1,313.6z"/>
	<path class="st1" d="M332.1,319h-10.9c-0.7,0-1.4-0.6-1.4-1.4c0-0.7,0.6-1.4,1.4-1.4h10.9c0.7,0,1.4,0.6,1.4,1.4
		C333.4,318.4,332.8,319,332.1,319z"/>
</g>
<g>
	<path class="st6" d="M318.5,339.3h-16.3c-0.7,0-1.4,0.6-1.4,1.4v16.2c0,0.7,0.6,1.4,1.4,1.4l8.1,1.4l8.1-1.4c0.7,0,1.4-0.6,1.4-1.4
		v-16.2C319.9,339.9,319.3,339.3,318.5,339.3z"/>
	<path class="st6" d="M318.5,358.2h-16.3c-0.7,0-1.4,0.6-1.4,1.4v16.2c0,0.7,0.6,1.4,1.4,1.4h16.3c0.7,0,1.4-0.6,1.4-1.4v-16.2
		C319.9,358.8,319.3,358.2,318.5,358.2z"/>
</g>
<path class="st7" d="M303.6,375.8v-16.2c0-0.7,0.6-1.4,1.4-1.4h-2.7c-0.7,0-1.4,0.6-1.4,1.4v16.2c0,0.7,0.6,1.4,1.4,1.4h2.7
	C304.2,377.1,303.6,376.5,303.6,375.8z"/>
<path class="st8" d="M313.1,358.2h-5.4v6.8c0,0.7,0.6,1.4,1.4,1.4h2.7c0.7,0,1.4-0.6,1.4-1.4V358.2L313.1,358.2z"/>
<path class="st2" d="M313.1,374.4h-5.4c-0.7,0-1.4-0.6-1.4-1.4s0.6-1.4,1.4-1.4h5.4c0.7,0,1.4,0.6,1.4,1.4S313.9,374.4,313.1,374.4z
	"/>
<path class="st7" d="M303.6,356.8v-16.2c0-0.7,0.6-1.4,1.4-1.4h-2.7c-0.7,0-1.4,0.6-1.4,1.4v16.2c0,0.7,0.6,1.4,1.4,1.4h2.7
	C304.2,358.2,303.6,357.6,303.6,356.8z"/>
<path class="st8" d="M313.1,339.3h-5.4v6.8c0,0.7,0.6,1.4,1.4,1.4h2.7c0.7,0,1.4-0.6,1.4-1.4V339.3L313.1,339.3z"/>
<path class="st2" d="M313.1,355.5h-5.4c-0.7,0-1.4-0.6-1.4-1.4s0.6-1.4,1.4-1.4h5.4c0.7,0,1.4,0.6,1.4,1.4S313.9,355.5,313.1,355.5z
	"/>
<path class="st6" d="M337.5,358.2h-16.3c-0.7,0-1.4,0.6-1.4,1.4v16.2c0,0.7,0.6,1.4,1.4,1.4h16.3c0.7,0,1.4-0.6,1.4-1.4v-16.2
	C338.9,358.8,338.3,358.2,337.5,358.2z"/>
<path class="st7" d="M322.6,375.8v-16.2c0-0.7,0.6-1.4,1.4-1.4h-2.7c-0.7,0-1.4,0.6-1.4,1.4v16.2c0,0.7,0.6,1.4,1.4,1.4h2.7
	C323.2,377.1,322.6,376.5,322.6,375.8z"/>
<path class="st8" d="M332.1,358.2h-5.4v6.8c0,0.7,0.6,1.4,1.4,1.4h2.7c0.7,0,1.4-0.6,1.4-1.4L332.1,358.2L332.1,358.2z"/>
<path class="st2" d="M332.1,374.4h-5.4c-0.7,0-1.4-0.6-1.4-1.4s0.6-1.4,1.4-1.4h5.4c0.7,0,1.4,0.6,1.4,1.4S332.8,374.4,332.1,374.4z
	"/>
</svg>
